<svg width="10" height="17" viewBox="0 0 10 17" fill="none" xmlns="http://www.w3.org/2000/svg">
<path d="M6.64789 0.443477C6.06352 0.147825 5.47915 0.147825 4.89478 0.147825H1.09638C0.804199 0.147825 0.512014 0.295651 0.365922 0.443477C0.0737372 0.73913 0.0737305 0.886956 0.0737305 1.18261V15.6696C0.0737305 15.9652 0.219829 16.2609 0.365922 16.4087C0.658107 16.7043 0.804199 16.7043 1.09638 16.7043H4.89478C5.47915 16.7043 6.20961 16.5565 6.64789 16.4087C7.23226 16.113 7.67053 15.8174 8.10881 15.5217C8.54709 15.2261 8.83928 14.6348 9.13146 14.0435C9.42365 13.4522 9.56973 12.8609 9.56973 12.1217V4.87826C9.56973 4.13913 9.42365 3.54783 9.13146 2.95652C8.83928 2.36522 8.54709 1.92174 8.10881 1.47826C7.81662 1.03478 7.23226 0.73913 6.64789 0.443477ZM7.23226 12.1217C7.23226 12.4174 7.23226 12.713 7.08617 13.0087C6.94007 13.3043 6.79398 13.6 6.5018 13.7478C6.3557 13.8957 6.06352 14.1913 5.77133 14.3391C5.47915 14.487 5.18697 14.487 4.89478 14.487H2.26512V2.51304H4.89478C5.18697 2.51304 5.47915 2.51304 5.77133 2.66087C6.06352 2.80869 6.3557 2.95652 6.5018 3.25217C6.64789 3.4 6.94007 3.69565 7.08617 3.9913C7.23226 4.28696 7.23226 4.58261 7.23226 4.87826V12.1217Z" fill="#272524"/>
</svg>
