<svg width="10" height="17" viewBox="0 0 10 17" fill="none" xmlns="http://www.w3.org/2000/svg">
<path d="M8.8313 2.51304C9.26957 2.51304 9.56174 2.36522 9.70784 2.21739C9.85393 1.92174 10 1.77391 10 1.47826C10 1.18261 9.85393 0.886956 9.70784 0.73913C9.56174 0.443478 9.26957 0.443478 8.8313 0.443478H1.52669C1.23451 0.443478 0.942322 0.591304 0.79623 0.73913C0.504046 1.03478 0.504028 1.18261 0.504028 1.47826V15.9652C0.504028 16.2609 0.650138 16.5565 0.79623 16.7043C1.08841 17 1.23451 17 1.52669 17H8.8313C9.26957 17 9.56174 16.8522 9.70784 16.7043C9.85393 16.4087 10 16.2609 10 15.9652C10 15.6696 9.85393 15.3739 9.70784 15.2261C9.56174 14.9304 9.26957 14.9304 8.8313 14.9304H2.69541V9.46087H6.93209C7.37037 9.46087 7.66254 9.31304 7.80863 9.16522C7.95473 8.86957 8.10084 8.72174 8.10084 8.42609C8.10084 8.13043 7.95473 7.83478 7.80863 7.68696C7.66254 7.3913 7.37037 7.3913 6.93209 7.3913H2.69541V2.51304H8.8313Z" fill="#272524"/>
</svg>
