<svg width="10" height="17" viewBox="0 0 10 17" fill="none" xmlns="http://www.w3.org/2000/svg">
<path d="M6.39811 15.9652L9.90431 1.47826C9.90431 1.33043 9.90431 1.33043 9.90431 1.18261C9.90431 0.886957 9.75822 0.591304 9.61213 0.443478C9.31995 0.147826 9.02777 0 8.73558 0C8.4434 0 8.2973 0 8.15121 0.147826C8.00512 0.295652 7.85902 0.443478 7.71293 0.886957L5.08328 11.9739L2.45362 0.886957C2.30753 0.591304 2.16144 0.295652 2.01535 0.147826C1.86925 0 1.57707 0 1.43098 0C1.1388 0 0.846609 0.147826 0.554425 0.295652C0.262241 0.591304 0.11615 0.886957 0.11615 1.18261C0.11615 1.33043 0.11615 1.47826 0.11615 1.47826L3.62236 16.113C3.76845 16.4087 3.91454 16.7043 4.06064 16.8522C4.35282 17 4.64501 17.1478 4.93719 17.1478C5.22938 17.1478 5.52156 17 5.81374 16.8522C6.10593 16.5565 6.25202 16.4087 6.39811 15.9652Z" fill="#272524"/>
</svg>
